<svg xmlns="http://www.w3.org/2000/svg" style="display: none;">

    <symbol id="chats" viewBox="0 0 20 20" fill="none">
        <g clip-path="url(#clip0_2089_58)">
            <path d="M5 19.5C4.90476 19.5 4.81905 19.4805 4.72381 19.4415C4.45714 19.3246 4.28571 19.0615 4.28571 18.7692V14.8426C3.94286 14.8036 3.59048 14.7646 3.24762 14.7159C1.39048 14.4723 0 12.8062 0 10.8379V4.76769C0 2.80923 1.4 1.14308 3.24762 0.899487C5.2381 0.63641 7.26667 0.5 9.28571 0.5H9.29524C11.3048 0.5 13.3333 0.63641 15.3238 0.899487C17.181 1.14308 18.5714 2.80923 18.5714 4.77744V6.13179C19.4476 6.62872 20 7.58359 20 8.65538V12.8354C20 14.3456 18.9048 15.5831 17.4571 15.7C17.3524 15.7 17.2476 15.7195 17.1429 15.7292V18.0579C17.1429 18.3503 16.9714 18.6231 16.7048 18.7303C16.4381 18.8472 16.1333 18.779 15.9238 18.5744L13.2762 15.8656C12.0762 15.8656 10.8667 15.8072 9.68571 15.7097C9.49524 15.6903 9.31429 15.661 9.13333 15.6026L5.51429 19.3051C5.38095 19.4415 5.19048 19.5195 5.00952 19.5195L5 19.5ZM9.29524 1.96154H9.28571C7.33333 1.96154 5.3619 2.08821 3.4381 2.35128C2.29524 2.50718 1.42857 3.54974 1.42857 4.77744V10.8477C1.42857 12.0754 2.29524 13.1179 3.4381 13.2738C3.98095 13.3421 4.52381 13.4103 5.06667 13.459C5.4381 13.4979 5.71429 13.8097 5.71429 14.1897V17.0154L7.88571 14.7938C7.41905 14.2677 7.14286 13.5759 7.14286 12.8256V8.64564C7.14286 7.13538 8.2381 5.90769 9.67619 5.78103C12.1524 5.56667 14.6571 5.55692 17.1429 5.75179V4.77744C17.1429 3.54974 16.2762 2.50718 15.1333 2.35128C13.2095 2.09795 11.2381 1.96154 9.29524 1.96154ZM9.29524 14.0826C9.44762 14.1605 9.61905 14.219 9.79048 14.2287C11.0381 14.3359 12.3048 14.3846 13.5619 14.3846C13.7524 14.3846 13.9333 14.4626 14.0667 14.599L15.7048 16.2749V15.0277C15.7048 14.6379 16 14.3164 16.381 14.2969C16.6952 14.2774 17.019 14.2579 17.3333 14.2287C18.0286 14.1703 18.5619 13.5662 18.5619 12.8159V8.6359C18.5619 8.02205 18.1905 7.47641 17.6381 7.29128C17.6381 7.29128 17.619 7.29128 17.6095 7.29128C17.5143 7.26205 17.419 7.24256 17.3238 7.23282C14.819 7.01846 12.2857 7.01846 9.78095 7.23282C9.08571 7.29128 8.55238 7.89538 8.55238 8.6359V12.8159C8.55238 13.3421 8.82857 13.8195 9.26667 14.0631C9.26667 14.0631 9.28571 14.0631 9.28571 14.0728L9.29524 14.0826Z" fill="#5975FF" />
        </g>
        <defs>
            <clipPath id="clip0_2089_58">
                <rect width="20" height="19" fill="white" transform="translate(0 0.5)" />
            </clipPath>
        </defs>
    </symbol>

    <symbol id="magazine" viewBox="0 0 24 24" fill="none">
        <path d="M5.15069 21C4.70933 21 4.29445 20.8371 3.9855 20.5286C3.67654 20.2286 3.5 19.8171 3.5 19.3886C3.5 19.3286 3.5 19.2771 3.50883 19.2171L4.62106 8.94C4.70933 8.11714 5.41551 7.5 6.26292 7.5H8.01954V6.85714C8.02837 4.73143 9.81147 3 12.0006 3C14.1898 3 15.9729 4.73143 15.9729 6.85714V7.5H17.7295C18.5769 7.5 19.2919 8.11714 19.3802 8.94L20.4924 19.2257C20.5366 19.68 20.3865 20.1343 20.0775 20.4686C19.7686 20.8029 19.3184 21 18.8506 21H5.15069ZM6.27175 8.78571C6.10403 8.78571 5.9628 8.90571 5.94514 9.07714L4.83291 19.3629C4.83291 19.5171 4.8947 19.5857 4.93001 19.6286C4.96532 19.6629 5.03594 19.7229 5.16835 19.7229H18.8506C18.983 19.7229 19.0624 19.6543 19.0977 19.62C19.133 19.5771 19.1948 19.4914 19.1772 19.3714L18.0649 9.08571C18.0473 8.92286 17.906 8.79429 17.7383 8.79429H15.9817V10.0029C16.1847 10.1829 16.3171 10.44 16.3171 10.7229C16.3171 11.2543 15.8758 11.6829 15.3285 11.6829C14.7812 11.6829 14.3398 11.2543 14.3398 10.7229C14.3398 10.44 14.4634 10.1829 14.6753 10.0029V8.79429H9.37894V10.0029C9.58196 10.1829 9.71437 10.44 9.71437 10.7229C9.71437 11.2543 9.27301 11.6829 8.72572 11.6829C8.17843 11.6829 7.73707 11.2543 7.73707 10.7229C7.73707 10.44 7.86948 10.1829 8.07251 10.0029V8.79429H6.31589L6.27175 8.78571ZM9.35246 7.5H14.6488V6.85714C14.6488 5.44286 13.4571 4.28571 12.0006 4.28571C10.5441 4.28571 9.35246 5.44286 9.35246 6.85714V7.5Z" fill="#5975FF" />
    </symbol>

    <symbol id="users" viewBox="0 0 24 24" fill="none">
        <path d="M8.80155 21H8.7825C6.50579 21 4.28624 20.4 2.34294 19.2738C2.13336 19.1538 2 18.9231 2 18.6831V18.5815C2 16.8185 2.70492 15.1662 3.9814 13.92C5.26741 12.6738 6.96304 11.9908 8.7825 11.9908C10.9258 11.9908 12.9168 12.9692 14.1837 14.5846C15.0792 13.7723 16.2699 13.3292 17.5559 13.3754C18.7943 13.4215 19.9374 13.9385 20.7757 14.8246C21.614 15.7108 22.0522 16.8554 21.995 18.0554C21.9855 18.3046 21.8331 18.5354 21.5949 18.6462C20.2804 19.2646 18.8229 19.5969 17.3654 19.5969H17.3464C16.5843 19.5969 15.8222 19.5046 15.0792 19.3385C13.174 20.4185 11.0116 20.9815 8.80155 20.9815V21ZM3.4289 18.2769C5.05784 19.1538 6.90588 19.6154 8.7825 19.6154H8.80155C10.6686 19.6154 12.5072 19.1538 14.1361 18.2862C14.0885 17.52 13.8694 16.7815 13.4979 16.1077C13.4979 16.0985 13.4788 16.08 13.4693 16.0708C12.5262 14.4185 10.7258 13.3846 8.7825 13.3846C7.3536 13.3846 6.00091 13.9292 4.99116 14.9077C4.04809 15.8215 3.50511 17.0123 3.4289 18.2862V18.2769ZM17.3559 18.2308H17.3654C18.4609 18.2308 19.5469 18.0185 20.5566 17.6031C20.4137 16.0708 19.1182 14.8338 17.4892 14.7692C16.5176 14.7323 15.584 15.12 14.9458 15.8215C15.2792 16.5138 15.4793 17.2708 15.5459 18.0369C16.1366 18.1662 16.7367 18.2308 17.3464 18.2308H17.3559ZM17.3559 12C15.584 12 14.1361 10.6062 14.1361 8.88C14.1361 7.15385 15.5745 5.76 17.3559 5.76C19.1372 5.76 20.5757 7.15385 20.5757 8.88C20.5757 10.6062 19.1372 12 17.3559 12ZM17.3559 7.15385C16.3747 7.15385 15.565 7.92923 15.565 8.88923C15.565 9.84923 16.3652 10.6246 17.3559 10.6246C18.3466 10.6246 19.1468 9.84923 19.1468 8.88923C19.1468 7.92923 18.3466 7.15385 17.3559 7.15385ZM8.7825 10.6154C6.6201 10.6154 4.85779 8.90769 4.85779 6.81231C4.85779 4.71692 6.61057 3 8.7825 3C10.9544 3 12.7072 4.70769 12.7072 6.80308C12.7072 8.89846 10.9449 10.6062 8.7825 10.6062V10.6154ZM8.7825 4.38462C7.40123 4.38462 6.28669 5.47385 6.28669 6.80308C6.28669 8.13231 7.41076 9.22154 8.7825 9.22154C10.1542 9.22154 11.2783 8.13231 11.2783 6.80308C11.2783 5.47385 10.1542 4.38462 8.7825 4.38462Z" fill="#5975FF" />
    </symbol>

    <symbol id="small-row" viewBox="0 0 8 8" fill="none">
        <path fill-rule="evenodd" clip-rule="evenodd" d="M2.78786 1.81822C2.65397 1.81822 2.54543 1.70969 2.54543 1.5758C2.54543 1.44191 2.65397 1.33337 2.78786 1.33337H6.42422C6.55811 1.33337 6.66665 1.44191 6.66665 1.5758V5.21216C6.66665 5.34605 6.55811 5.45459 6.42422 5.45459C6.29033 5.45459 6.1818 5.34605 6.1818 5.21216V2.16106L1.74716 6.5957C1.65248 6.69038 1.49899 6.69038 1.40432 6.5957C1.30964 6.50103 1.30964 6.34754 1.40432 6.25286L5.83896 1.81822H2.78786Z" fill="white" />
    </symbol>

    <symbol id="cursor" viewBox="0 0 230 228" fill="none">
        <g filter="url(#filter0_d_9_205)">
            <path fill-rule="evenodd" clip-rule="evenodd" d="M115 16.6666C118.452 16.6666 121.25 19.3415 121.25 22.6411V40.5647C121.25 43.8643 118.452 46.5392 115 46.5392C111.548 46.5392 108.75 43.8643 108.75 40.5647V22.6411C108.75 19.3415 111.548 16.6666 115 16.6666ZM168.036 37.6624C170.477 39.9956 170.477 43.7785 168.036 46.1117L154.778 58.7856C152.337 61.1188 148.38 61.1188 145.939 58.7856C143.498 56.4524 143.498 52.6696 145.939 50.3364L159.197 37.6624C161.638 35.3292 165.595 35.3292 168.036 37.6624ZM61.9722 37.6704C64.413 35.3372 68.3703 35.3372 70.8111 37.6704L84.0611 50.3364C86.5019 52.6696 86.5019 56.4524 84.0611 58.7856C81.6203 61.1188 77.663 61.1188 75.2222 58.7856L61.9722 46.1196C59.5315 43.7865 59.5315 40.0036 61.9722 37.6704ZM111.241 73.4687C113.839 72.8033 116.592 73.8019 118.074 75.9479L161.632 139.015C163.025 141.031 163.01 143.651 161.594 145.653C160.179 147.655 157.641 148.644 155.164 148.16L137.685 144.743L146.387 175.812C147.28 178.999 145.301 182.275 141.966 183.129C138.632 183.982 135.205 182.09 134.313 178.902L125.612 147.837L112.263 159.149C110.371 160.752 107.656 161.108 105.383 160.051C103.11 158.993 101.726 156.732 101.878 154.32L106.62 78.8814C106.781 76.3145 108.642 74.1342 111.241 73.4687ZM117.973 97.4881L115.26 140.641L124.887 132.483C126.359 131.236 128.359 130.724 130.286 131.1L142.889 133.564L117.973 97.4881ZM40 88.3608C40 85.0612 42.7982 82.3863 46.25 82.3863H65C68.4518 82.3863 71.25 85.0612 71.25 88.3608C71.25 91.6605 68.4518 94.3354 65 94.3354H46.25C42.7982 94.3354 40 91.6605 40 88.3608ZM158.75 88.3608C158.75 85.0612 161.548 82.3863 165 82.3863H183.75C187.202 82.3863 190 85.0612 190 88.3608C190 91.6605 187.202 94.3354 183.75 94.3354H165C161.548 94.3354 158.75 91.6605 158.75 88.3608ZM84.0611 117.936C86.5019 120.269 86.5019 124.052 84.0611 126.385L70.8111 139.051C68.3703 141.384 64.413 141.384 61.9722 139.051C59.5315 136.718 59.5315 132.935 61.9722 130.602L75.2222 117.936C77.663 115.603 81.6203 115.603 84.0611 117.936Z" fill="#5975FF" />
        </g>
        <defs>
            <filter id="filter0_d_9_205" x="-25" y="-36" width="280" height="280" filterUnits="userSpaceOnUse" color-interpolation-filters="sRGB">
                <feFlood flood-opacity="0" result="BackgroundImageFix" />
                <feColorMatrix in="SourceAlpha" type="matrix" values="0 0 0 0 0 0 0 0 0 0 0 0 0 0 0 0 0 0 127 0" result="hardAlpha" />
                <feOffset dy="4" />
                <feGaussianBlur stdDeviation="20" />
                <feColorMatrix type="matrix" values="0 0 0 0 0.139608 0 0 0 0 0.183529 0 0 0 0 0.4 0 0 0 1 0" />
                <feBlend mode="normal" in2="BackgroundImageFix" result="effect1_dropShadow_9_205" />
                <feBlend mode="normal" in="SourceGraphic" in2="effect1_dropShadow_9_205" result="shape" />
            </filter>
        </defs>
    </symbol>

    <symbol id="fire" viewBox="0 0 214 219" fill="none" >
        <g filter="url(#filter0_d_9_192)">
            <path fill-rule="evenodd" clip-rule="evenodd" d="M140.347 54.7284C152.114 61.3005 161.522 71.1923 167.312 83.0786C173.102 94.965 174.997 108.278 172.743 121.235C170.489 134.192 164.193 146.173 154.7 155.573C145.206 164.974 132.968 171.345 119.625 173.834C106.282 176.322 92.4715 174.808 80.043 169.495C67.6145 164.183 57.1619 155.325 50.0856 144.108C43.0093 132.891 39.6472 119.852 40.4497 106.736C41.2522 93.6203 46.181 81.0549 54.5757 70.7231C56.4995 68.3566 60.1948 68.7157 62.1281 71.0822C64.7757 74.3235 67.7852 77.2701 71.109 79.8669C74.2709 82.3439 78.5947 79.4156 78.4709 75.4837C78.1668 66.7165 80.0346 58.006 83.9186 50.0783C89.0017 39.7316 97.2721 31.1595 107.595 25.5384C109.947 24.2493 112.833 25.3911 114.042 27.73C119.87 39.0374 129.021 48.4295 140.347 54.7284ZM145.109 119.757C145.109 129.525 141.095 138.894 133.951 145.802C126.807 152.709 117.117 156.59 107.014 156.59C88.7947 156.59 73.49 143.717 69.7757 127.289C68.89 123.339 73.9662 121.368 77.5281 123.486C82.1733 126.241 87.3703 128.011 92.7757 128.68C95.6614 129.029 97.8328 126.47 97.6328 123.67C96.5857 109.732 101.063 95.9317 110.157 85.0695C110.639 84.4875 111.275 84.043 111.998 83.7835C112.721 83.524 113.503 83.4593 114.261 83.5962C122.945 85.225 130.772 89.7239 136.4 96.3216C142.028 102.919 145.107 111.205 145.109 119.757Z" fill="#5975FF" />
        </g>
        <defs>
            <filter id="filter0_d_9_192" x="-33" y="-36" width="280" height="280" filterUnits="userSpaceOnUse" color-interpolation-filters="sRGB">
                <feFlood flood-opacity="0" result="BackgroundImageFix" />
                <feColorMatrix in="SourceAlpha" type="matrix" values="0 0 0 0 0 0 0 0 0 0 0 0 0 0 0 0 0 0 127 0" result="hardAlpha" />
                <feOffset dy="4" />
                <feGaussianBlur stdDeviation="20" />
                <feColorMatrix type="matrix" values="0 0 0 0 0.139608 0 0 0 0 0.183529 0 0 0 0 0.4 0 0 0 1 0" />
                <feBlend mode="normal" in2="BackgroundImageFix" result="effect1_dropShadow_9_192" />
                <feBlend mode="normal" in="SourceGraphic" in2="effect1_dropShadow_9_192" result="shape" />
            </filter>
        </defs>
    </symbol>

    <symbol id="levin" viewBox="0 0 230 232" fill="none">
        <g filter="url(#filter0_d_9_212)">
            <path fill-rule="evenodd" clip-rule="evenodd" d="M136.793 13.2913C139.304 14.6908 140.536 17.6219 139.78 20.3947L123.183 81.2502H183.75C186.239 81.2502 188.49 82.7267 189.482 85.0093C190.474 87.2918 190.017 89.9453 188.319 91.7647L100.819 185.515C98.8581 187.616 95.7169 188.109 93.2066 186.709C90.6963 185.31 89.464 182.379 90.2202 179.606L106.817 118.75H46.25C43.7613 118.75 41.5097 117.274 40.5178 114.991C39.526 112.709 39.9828 110.055 41.6809 108.236L129.181 14.4857C131.142 12.3846 134.283 11.8917 136.793 13.2913ZM60.6326 106.25H115C116.948 106.25 118.785 107.158 119.967 108.707C121.149 110.255 121.542 112.265 121.03 114.145L108.932 158.502L169.367 93.7502H115C113.052 93.7502 111.215 92.842 110.033 91.2939C108.851 89.7459 108.458 87.735 108.97 85.8557L121.068 41.4983L60.6326 106.25Z" fill="#5975FF" />
        </g>
        <defs>
            <filter id="filter0_d_9_212" x="-25" y="-36" width="280" height="280" filterUnits="userSpaceOnUse" color-interpolation-filters="sRGB">
                <feFlood flood-opacity="0" result="BackgroundImageFix" />
                <feColorMatrix in="SourceAlpha" type="matrix" values="0 0 0 0 0 0 0 0 0 0 0 0 0 0 0 0 0 0 127 0" result="hardAlpha" />
                <feOffset dy="4" />
                <feGaussianBlur stdDeviation="20" />
                <feColorMatrix type="matrix" values="0 0 0 0 0.139608 0 0 0 0 0.183529 0 0 0 0 0.4 0 0 0 1 0" />
                <feBlend mode="normal" in2="BackgroundImageFix" result="effect1_dropShadow_9_212" />
                <feBlend mode="normal" in="SourceGraphic" in2="effect1_dropShadow_9_212" result="shape" />
            </filter>
        </defs>
    </symbol>

    <symbol id="arrows-up" viewBox="0 0 24 24" fill="none">
        <path d="M18.8202 19C18.6475 19 18.4747 18.9347 18.3383 18.7946L12 12.2882L5.66172 18.7946C5.398 19.0653 4.9615 19.0653 4.69779 18.7946C4.43407 18.5239 4.43407 18.0758 4.69779 17.8051L11.518 10.804C11.7818 10.5333 12.2182 10.5333 12.482 10.804L19.3022 17.8051C19.5659 18.0758 19.5659 18.5239 19.3022 18.7946C19.1658 18.9347 18.993 19 18.8202 19ZM19.3022 13.1937C19.5659 12.923 19.5659 12.4749 19.3022 12.2042L12.482 5.20303C12.2182 4.93232 11.7818 4.93232 11.518 5.20303L4.69779 12.2042C4.43407 12.4749 4.43407 12.923 4.69779 13.1937C4.9615 13.4644 5.398 13.4644 5.66172 13.1937L12 6.68728L18.3383 13.1937C18.4747 13.3337 18.6475 13.3991 18.8202 13.3991C18.993 13.3991 19.1658 13.3337 19.3022 13.1937Z" fill="#5975FF" />
    </symbol>

    <symbol id="circle-arrows" viewBox="0 0 24 24" fill="none">
        <path d="M12 19.9903C10.8424 19.9903 9.68482 19.9419 8.52723 19.8547C6.35208 19.6899 4.58769 17.8586 4.42898 15.6009C4.38231 14.9808 4.3543 14.3509 4.32629 13.7211L2.6926 15.4168C2.42187 15.6978 1.97377 15.6978 1.70305 15.4168C1.43232 15.1358 1.43232 14.6707 1.70305 14.3897L4.50367 11.4828C4.56902 11.415 4.6437 11.3665 4.71838 11.3375C4.88642 11.2696 5.0918 11.2696 5.25984 11.3375C5.34385 11.3762 5.41854 11.4247 5.48389 11.4925L8.28451 14.3994C8.55523 14.6804 8.55523 15.1455 8.28451 15.4265C8.01378 15.7075 7.56568 15.7075 7.29495 15.4265L5.72661 13.7986C5.74528 14.3703 5.78262 14.942 5.81996 15.504C5.93198 17.0544 7.13625 18.3043 8.62992 18.4206C10.8611 18.595 13.1296 18.595 15.3607 18.4206C16.8544 18.3043 18.0587 17.0544 18.1707 15.504L18.208 14.8742C18.2361 14.4769 18.5628 14.1668 18.9455 14.1959C19.3283 14.225 19.627 14.5641 19.599 14.9614L19.5523 15.6106C19.3936 17.8683 17.6293 19.6996 15.4541 19.8643C14.3058 19.9516 13.1483 20 11.9813 20L12 19.9903ZM19.0016 12.7231C18.9082 12.7231 18.8148 12.7037 18.7308 12.6649C18.6468 12.6262 18.5721 12.5777 18.5068 12.5099L15.7062 9.60303C15.4354 9.32203 15.4354 8.85693 15.7062 8.57593C15.9769 8.29493 16.425 8.29493 16.6957 8.57593L18.2641 10.2038C18.2454 9.6321 18.208 9.06041 18.1707 8.49841C18.0587 6.94807 16.8544 5.69811 15.3607 5.58183C13.1296 5.40742 10.8611 5.40742 8.62992 5.58183C7.13625 5.69811 5.93198 6.94807 5.81996 8.49841L5.77328 9.12824C5.74528 9.52551 5.4092 9.83558 5.02645 9.80651C4.6437 9.77744 4.34497 9.4383 4.37297 9.03134L4.41965 8.38213C4.58769 6.13414 6.35208 4.3028 8.52723 4.13808C10.8331 3.95397 13.1669 3.95397 15.4728 4.13808C17.6479 4.3028 19.4123 6.13414 19.571 8.39182C19.6177 9.01196 19.6457 9.64179 19.6737 10.2716L21.3074 8.57593C21.5781 8.29493 22.0262 8.29493 22.297 8.57593C22.5677 8.85693 22.5677 9.32203 22.297 9.60303L19.4963 12.5099C19.431 12.5777 19.3563 12.6359 19.2723 12.6649C19.1883 12.7037 19.0949 12.7231 19.0016 12.7231Z" fill="#5975FF" />
    </symbol>

    <symbol id="4rows"  viewBox="0 0 24 24" fill="none">
        <path d="M19.3333 20H15.3333C14.9689 20 14.6667 19.6978 14.6667 19.3333C14.6667 18.9689 14.9689 18.6667 15.3333 18.6667H17.7244L14.1956 15.1378C13.9378 14.88 13.9378 14.4533 14.1956 14.1956C14.4533 13.9378 14.88 13.9378 15.1378 14.1956L18.6667 17.7244V15.3333C18.6667 14.9689 18.9689 14.6667 19.3333 14.6667C19.6978 14.6667 20 14.9689 20 15.3333V19.3333C20 19.4222 19.9822 19.5111 19.9467 19.5911C19.9111 19.6711 19.8667 19.7422 19.8044 19.8044C19.7422 19.8667 19.6711 19.92 19.5911 19.9467C19.5111 19.9822 19.4222 20 19.3333 20ZM8.66667 20H4.66667C4.57778 20 4.48889 19.9822 4.40889 19.9467C4.32889 19.9111 4.25778 19.8667 4.19556 19.8044C4.13333 19.7422 4.08 19.6711 4.05333 19.5911C4.01778 19.5111 4 19.4222 4 19.3333V15.3333C4 14.9689 4.30222 14.6667 4.66667 14.6667C5.03111 14.6667 5.33333 14.9689 5.33333 15.3333V17.7244L8.86222 14.1956C9.12 13.9378 9.54667 13.9378 9.80444 14.1956C10.0622 14.4533 10.0622 14.88 9.80444 15.1378L6.27556 18.6667H8.66667C9.03111 18.6667 9.33333 18.9689 9.33333 19.3333C9.33333 19.6978 9.03111 20 8.66667 20ZM14.6667 10C14.4978 10 14.3289 9.93778 14.1956 9.80444C13.9378 9.54667 13.9378 9.12 14.1956 8.86222L17.7244 5.33333H15.3333C14.9689 5.33333 14.6667 5.03111 14.6667 4.66667C14.6667 4.30222 14.9689 4 15.3333 4H19.3333C19.4222 4 19.5111 4.01778 19.5911 4.05333C19.6711 4.08889 19.7422 4.13333 19.8044 4.19556C19.8667 4.25778 19.92 4.32889 19.9467 4.40889C19.9822 4.48889 20 4.57778 20 4.66667V8.66667C20 9.03111 19.6978 9.33333 19.3333 9.33333C18.9689 9.33333 18.6667 9.03111 18.6667 8.66667V6.27556L15.1378 9.80444C15.0044 9.93778 14.8356 10 14.6667 10ZM9.33333 10C9.16444 10 8.99556 9.93778 8.86222 9.80444L5.33333 6.27556V8.66667C5.33333 9.03111 5.03111 9.33333 4.66667 9.33333C4.30222 9.33333 4 9.03111 4 8.66667V4.66667C4 4.57778 4.01778 4.48889 4.05333 4.40889C4.08889 4.32889 4.13333 4.25778 4.19556 4.19556C4.25778 4.13333 4.32889 4.08 4.40889 4.05333C4.48889 4.01778 4.57778 4 4.66667 4H8.66667C9.03111 4 9.33333 4.30222 9.33333 4.66667C9.33333 5.03111 9.03111 5.33333 8.66667 5.33333H6.27556L9.80444 8.86222C10.0622 9.12 10.0622 9.54667 9.80444 9.80444C9.67111 9.93778 9.50222 10 9.33333 10Z" fill="#5975FF" />
    </symbol>
</svg>